<svg xmlns="http://www.w3.org/2000/svg" xmlns:xlink="http://www.w3.org/1999/xlink" width="170" zoomAndPan="magnify" viewBox="0 0 127.5 44.999999" height="60" preserveAspectRatio="xMidYMid meet" version="1.0"><defs><g/></defs><g fill="#545454" fill-opacity="1"><g transform="translate(1.544746, 35.003465)"><g><path d="M 5.125 -20.492188 L 25.617188 -20.492188 L 25.617188 -23.910156 L 1.707031 -23.910156 L 1.707031 0 L 25.617188 0 L 25.617188 -3.414062 L 5.125 -3.414062 L 5.125 -10.246094 L 22.199219 -10.246094 L 22.199219 -13.660156 L 5.125 -13.660156 Z M 5.125 -20.492188 "/></g></g></g><g fill="#545454" fill-opacity="1"><g transform="translate(34.704285, 35.003465)"><g><path d="M 9.394531 0 L 15.882812 0 L 24.589844 -17.078125 L 24.589844 -23.910156 L 21.175781 -23.910156 L 21.175781 -17.898438 L 13.796875 -3.414062 L 11.476562 -3.414062 L 4.097656 -17.898438 L 4.097656 -23.910156 L 0.683594 -23.910156 L 0.683594 -17.078125 Z M 9.394531 0 "/></g></g></g><g fill="#545454" fill-opacity="1"><g transform="translate(66.497891, 35.003465)"><g><path d="M 18.785156 -20.492188 C 20.664062 -20.492188 22.199219 -18.957031 22.199219 -17.078125 L 22.199219 -10.246094 L 5.125 -10.246094 L 5.125 -17.078125 C 5.125 -18.957031 6.660156 -20.492188 8.539062 -20.492188 Z M 25.617188 -17.078125 C 25.515625 -20.867188 22.441406 -23.910156 18.785156 -23.910156 L 8.539062 -23.910156 C 4.714844 -23.910156 1.707031 -20.699219 1.707031 -17.078125 L 1.707031 0 L 5.125 0 L 5.125 -6.832031 L 22.199219 -6.832031 L 22.199219 0 L 25.617188 0 Z M 25.617188 -17.078125 "/></g></g></g><g fill="#545454" fill-opacity="1"><g transform="translate(100.340399, 35.003465)"><g><path d="M 5.125 -23.910156 L 1.707031 -23.910156 L 1.707031 0 L 25.617188 0 L 25.617188 -3.414062 L 5.125 -3.414062 Z M 5.125 -23.910156 "/></g></g></g><path stroke-linecap="butt" transform="matrix(0.747305, 0, 0, 0.75, 69.869646, 4.58789)" fill="none" stroke-linejoin="miter" d="M 0.00193667 2.497397 L 26.100913 2.497397 " stroke="#0cc0df" stroke-width="5" stroke-opacity="1" stroke-miterlimit="4"/></svg>